<?xml version="1.0" encoding="utf-8"?>
<!-- Generator: Adobe Illustrator 20.1.0, SVG Export Plug-In . SVG Version: 6.00 Build 0)  -->
<svg version="1.1" id="Layer_1" xmlns="http://www.w3.org/2000/svg" xmlns:xlink="http://www.w3.org/1999/xlink" x="0px" y="0px"
	 viewBox="0 0 1600 1145.4" style="enable-background:new 0 0 1600 1145.4;" xml:space="preserve">
<style type="text/css">
	.st0{fill:#007BFF;}
	.st1{fill:#FFFFFF;}
	.st2{opacity:0.12;fill:#007BFF;}
	.st3{fill:#082E51;}
	.st4{fill:none;stroke:#082E51;stroke-miterlimit:10;}
	.st5{fill:none;stroke:#007BFF;stroke-width:1.2967;stroke-miterlimit:10;}
	.st6{fill:none;stroke:#007BFF;stroke-width:4;stroke-linecap:round;stroke-miterlimit:10;}
</style>
<g>
	<path pointer-events="none" class="st0" d="M320.8,45.8H644c18.8,0,34.1,13.3,34.1,29.6v64.1c0,16.3-15.3,29.6-34.1,29.6H320.8
		c-18.8,0-34.1-13.3-34.1-29.6V75.4C286.7,59.1,302,45.8,320.8,45.8z"/>
	<g>
		<path class="st1" d="M370.3,102.1h0.9v-9.8h4.1V119h-4v-1.8h-0.9c-1,1.3-2.7,2.3-5.5,2.3c-5,0-8-4.2-8-9.8c0-5.6,3-9.8,8-9.8
			C367.7,99.9,369.3,100.8,370.3,102.1z M371.3,109.6c0-3.3-1.5-6.3-5.2-6.3c-3.4,0-5.1,2.7-5.1,6.3c0,3.6,1.7,6.3,5.1,6.3
			C369.8,115.9,371.3,113,371.3,109.6z"/>
		<path class="st1" d="M398.7,109.6c0,5.7-3.5,9.8-9.4,9.8s-9.4-4.1-9.4-9.8c0-5.7,3.5-9.8,9.4-9.8S398.7,104,398.7,109.6z
			 M394.6,109.6c0-3.3-1.6-6.3-5.3-6.3c-3.6,0-5.3,3-5.3,6.3c0,3.3,1.6,6.3,5.3,6.3C393,115.9,394.6,113,394.6,109.6z"/>
		<path class="st1" d="M407.5,92.4V119h-4.1V92.4H407.5z"/>
		<path class="st1" d="M417.3,92.4V119h-4.1V92.4H417.3z"/>
		<path class="st1" d="M434.7,117.2h-0.9c-1.1,1.4-2.9,2.2-5.5,2.2c-4.3,0-6.7-2.9-6.7-6.1c0-2.9,2-6.3,7.4-6.3h5.5v-0.5
			c0-2-1.2-3.4-3.9-3.4c-2.4,0-3.6,1-3.7,2.4h-4.1c0.2-3.5,3.3-5.6,7.7-5.6c4.8,0,8,2.1,8,6.7V119h-3.8V117.2z M434.5,111.4V110
			h-4.8c-2.6,0-3.9,1.1-3.9,3.1c0,1.9,1.4,3,3.8,3C432.4,116.1,434.5,114,434.5,111.4z"/>
		<path class="st1" d="M455.6,104.2h-1.7c-3.8,0-5.8,2.2-5.8,6.1v8.7h-4.1v-18.6h4v2.2h0.9c0.8-1,2.3-2.2,5.2-2.2h1.6V104.2z"/>
		<path class="st1" d="M469.9,105.3c-0.3-1.6-1.8-2-3.7-2c-2,0-3.4,0.6-3.4,1.9c0,1.2,0.8,1.6,2.4,1.9l3.6,0.6
			c3.4,0.5,5.7,2.3,5.7,5.8c0,3.1-2.7,6-8,6c-5.5,0-8.1-2.4-8.5-6.1h4.1c0.3,1.9,1.9,2.7,4.3,2.7c2.4,0,3.9-0.7,3.9-2.4
			c0-1.4-0.9-2.1-3-2.5l-3.9-0.7c-2.8-0.5-4.8-2-4.8-4.9c0-3.1,2.4-5.7,7.6-5.7c4.5,0,7.2,2.2,7.6,5.4H469.9z"/>
		<path class="st1" d="M507.7,118.2l-18.4-8.2v-3l18.4-8.2v3.7l-12.8,5.6v0.9l12.8,5.6V118.2z"/>
		<path class="st1" d="M522.9,115.2h5.9V97.7H528l-5.1,3.4v-4.3l5.1-3.5h5.1v21.9h5.4v3.7h-15.6V115.2z"/>
		<path class="st1" d="M561.2,106.2c0,9.3-4.2,13.3-9.7,13.3c-5.6,0-9.7-4-9.7-13.3c0-9.3,4.2-13.3,9.7-13.3
			C557,92.8,561.2,96.9,561.2,106.2z M556.9,106.2c0-5.2-1.4-9.5-5.4-9.5c-4.1,0-5.4,4.3-5.4,9.5c0,5.2,1.4,9.5,5.4,9.5
			C555.5,115.6,556.9,111.4,556.9,106.2z"/>
		<path class="st1" d="M584.4,106.2c0,9.3-4.2,13.3-9.7,13.3c-5.6,0-9.7-4-9.7-13.3c0-9.3,4.2-13.3,9.7-13.3
			C580.2,92.8,584.4,96.9,584.4,106.2z M580.2,106.2c0-5.2-1.4-9.5-5.4-9.5c-4.1,0-5.4,4.3-5.4,9.5c0,5.2,1.4,9.5,5.4,9.5
			C578.8,115.6,580.2,111.4,580.2,106.2z"/>
		<path class="st1" d="M607.7,106.2c0,9.3-4.2,13.3-9.7,13.3c-5.6,0-9.7-4-9.7-13.3c0-9.3,4.2-13.3,9.7-13.3
			C603.5,92.8,607.7,96.9,607.7,106.2z M603.4,106.2c0-5.2-1.4-9.5-5.4-9.5c-4.1,0-5.4,4.3-5.4,9.5c0,5.2,1.4,9.5,5.4,9.5
			C602.1,115.6,603.4,111.4,603.4,106.2z"/>
	</g>
</g>
<g>
	<path pointer-events="none" class="st2" d="M864.2,564.6h323.2c18.8,0,34.1,13.3,34.1,29.6v64.1c0,16.3-15.3,29.6-34.1,29.6H864.2
		c-18.8,0-34.1-13.3-34.1-29.6v-64.1C830,577.9,845.4,564.6,864.2,564.6z"/>
	<g>
		<g>
			<path class="st3" d="M890.5,622.4h0.9v-9.8h4.1v26.6h-4v-1.8h-0.9c-1,1.3-2.7,2.3-5.5,2.3c-5,0-8-4.2-8-9.8c0-5.6,3-9.8,8-9.8
				C887.9,620.2,889.5,621.1,890.5,622.4z M891.5,629.9c0-3.3-1.5-6.3-5.2-6.3c-3.4,0-5.1,2.7-5.1,6.3c0,3.6,1.7,6.3,5.1,6.3
				C890,636.2,891.5,633.3,891.5,629.9z"/>
			<path class="st3" d="M918.9,629.9c0,5.7-3.5,9.8-9.4,9.8c-5.9,0-9.4-4.1-9.4-9.8c0-5.7,3.5-9.8,9.4-9.8
				C915.4,620.2,918.9,624.3,918.9,629.9z M914.8,629.9c0-3.3-1.6-6.3-5.3-6.3s-5.3,3-5.3,6.3c0,3.3,1.6,6.3,5.3,6.3
				S914.8,633.3,914.8,629.9z"/>
			<path class="st3" d="M927.7,612.7v26.6h-4.1v-26.6H927.7z"/>
			<path class="st3" d="M937.5,612.7v26.6h-4.1v-26.6H937.5z"/>
			<path class="st3" d="M954.8,637.5H954c-1.1,1.4-2.9,2.2-5.5,2.2c-4.3,0-6.7-2.9-6.7-6.1c0-2.9,2-6.3,7.4-6.3h5.5v-0.5
				c0-2-1.2-3.4-3.9-3.4c-2.4,0-3.6,1-3.7,2.4H943c0.2-3.5,3.3-5.6,7.7-5.6c4.8,0,8,2.1,8,6.7v12.4h-3.8V637.5z M954.7,631.7v-1.4
				h-4.8c-2.6,0-3.9,1.1-3.9,3.1c0,1.9,1.4,3,3.8,3C952.5,636.4,954.7,634.3,954.7,631.7z"/>
			<path class="st3" d="M975.8,624.5h-1.7c-3.8,0-5.8,2.2-5.8,6.1v8.7h-4.1v-18.6h4v2.2h0.9c0.8-1,2.3-2.2,5.2-2.2h1.6V624.5z"/>
			<path class="st3" d="M990.1,625.6c-0.3-1.6-1.8-2-3.7-2c-2,0-3.4,0.6-3.4,1.9c0,1.2,0.8,1.6,2.4,1.9l3.6,0.6
				c3.4,0.5,5.7,2.3,5.7,5.8c0,3.1-2.7,6-8,6c-5.5,0-8.1-2.4-8.5-6.1h4.1c0.3,1.9,1.9,2.7,4.3,2.7c2.4,0,3.9-0.7,3.9-2.4
				c0-1.4-0.9-2.1-3-2.5l-3.9-0.7c-2.8-0.5-4.8-2-4.8-4.9c0-3.1,2.4-5.7,7.6-5.7c4.5,0,7.2,2.2,7.6,5.4H990.1z"/>
			<path class="st3" d="M1027.9,638.5l-18.4-8.2v-3l18.4-8.2v3.7l-12.8,5.6v0.9l12.8,5.6V638.5z"/>
			<path class="st3" d="M1043.1,635.5h5.9V618h-0.9l-5.1,3.4v-4.3l5.1-3.5h5.1v21.9h5.5v3.7h-15.6V635.5z"/>
			<path class="st3" d="M1081.4,626.5c0,9.3-4.2,13.3-9.7,13.3c-5.6,0-9.7-4-9.7-13.3c0-9.3,4.2-13.3,9.7-13.3
				C1077.2,613.1,1081.4,617.2,1081.4,626.5z M1077.1,626.5c0-5.2-1.4-9.5-5.4-9.5s-5.5,4.3-5.5,9.5c0,5.2,1.4,9.5,5.5,9.5
				S1077.1,631.6,1077.1,626.5z"/>
			<path class="st3" d="M1104.6,626.5c0,9.3-4.2,13.3-9.7,13.3c-5.6,0-9.7-4-9.7-13.3c0-9.3,4.2-13.3,9.7-13.3
				C1100.4,613.1,1104.6,617.2,1104.6,626.5z M1100.3,626.5c0-5.2-1.4-9.5-5.4-9.5s-5.5,4.3-5.5,9.5c0,5.2,1.4,9.5,5.5,9.5
				S1100.3,631.6,1100.3,626.5z"/>
			<path class="st3" d="M1127.9,626.5c0,9.3-4.2,13.3-9.7,13.3c-5.6,0-9.7-4-9.7-13.3c0-9.3,4.2-13.3,9.7-13.3
				C1123.7,613.1,1127.9,617.2,1127.9,626.5z M1123.6,626.5c0-5.2-1.4-9.5-5.4-9.5s-5.5,4.3-5.5,9.5c0,5.2,1.4,9.5,5.5,9.5
				S1123.6,631.6,1123.6,626.5z"/>
			<path class="st3" d="M1151.1,626.5c0,9.3-4.2,13.3-9.7,13.3c-5.6,0-9.7-4-9.7-13.3c0-9.3,4.2-13.3,9.7-13.3
				C1146.9,613.1,1151.1,617.2,1151.1,626.5z M1146.9,626.5c0-5.2-1.4-9.5-5.4-9.5s-5.5,4.3-5.5,9.5c0,5.2,1.4,9.5,5.5,9.5
				S1146.9,631.6,1146.9,626.5z"/>
			<path class="st3" d="M1174.4,626.5c0,9.3-4.2,13.3-9.7,13.3c-5.6,0-9.7-4-9.7-13.3c0-9.3,4.2-13.3,9.7-13.3
				C1170.2,613.1,1174.4,617.2,1174.4,626.5z M1170.1,626.5c0-5.2-1.4-9.5-5.4-9.5s-5.5,4.3-5.5,9.5c0,5.2,1.4,9.5,5.5,9.5
				S1170.1,631.6,1170.1,626.5z"/>
		</g>
	</g>
</g>
<g>
	<path pointer-events="none" class="st4" d="M1135.3,966.1h323.2c18.8,0,34.1,13.3,34.1,29.6v64.1c0,16.3-15.3,29.6-34.1,29.6
		h-323.2c-18.8,0-34.1-13.3-34.1-29.6v-64.1C1101.2,979.3,1116.5,966.1,1135.3,966.1z"/>
	<g>
		<g>
			<path class="st3" d="M1154.4,1023.9h0.9v-9.8h4.1v26.6h-4v-1.8h-0.9c-1,1.3-2.7,2.3-5.5,2.3c-5,0-8-4.2-8-9.8c0-5.6,3-9.8,8-9.8
				C1151.8,1021.6,1153.4,1022.6,1154.4,1023.9z M1155.4,1031.4c0-3.3-1.5-6.3-5.2-6.3c-3.4,0-5.1,2.7-5.1,6.3
				c0,3.6,1.7,6.3,5.1,6.3C1153.9,1037.7,1155.4,1034.7,1155.4,1031.4z"/>
			<path class="st3" d="M1182.8,1031.4c0,5.7-3.5,9.8-9.4,9.8c-5.9,0-9.4-4.1-9.4-9.8c0-5.7,3.5-9.8,9.4-9.8
				C1179.3,1021.6,1182.8,1025.7,1182.8,1031.4z M1178.7,1031.4c0-3.3-1.6-6.3-5.3-6.3c-3.6,0-5.3,3-5.3,6.3c0,3.3,1.6,6.3,5.3,6.3
				C1177,1037.7,1178.7,1034.7,1178.7,1031.4z"/>
			<path class="st3" d="M1191.6,1014.1v26.6h-4.1v-26.6H1191.6z"/>
			<path class="st3" d="M1201.4,1014.1v26.6h-4.1v-26.6H1201.4z"/>
			<path class="st3" d="M1218.7,1039h-0.9c-1.1,1.4-2.9,2.2-5.5,2.2c-4.3,0-6.7-2.9-6.7-6.1c0-2.9,2-6.3,7.4-6.3h5.5v-0.5
				c0-2-1.2-3.4-3.9-3.4c-2.4,0-3.6,1-3.7,2.4h-4.1c0.2-3.5,3.3-5.6,7.7-5.6c4.8,0,8,2.1,8,6.7v12.4h-3.8V1039z M1218.6,1033.2v-1.4
				h-4.8c-2.6,0-4,1.1-4,3.1c0,1.9,1.4,3,3.8,3C1216.4,1037.8,1218.6,1035.8,1218.6,1033.2z"/>
			<path class="st3" d="M1239.7,1025.9h-1.7c-3.8,0-5.8,2.2-5.8,6.1v8.7h-4.1v-18.6h4v2.2h0.9c0.8-1,2.3-2.2,5.2-2.2h1.6V1025.9z"/>
			<path class="st3" d="M1254,1027.1c-0.3-1.6-1.8-2-3.7-2c-2,0-3.4,0.6-3.4,1.9c0,1.2,0.8,1.6,2.4,1.9l3.6,0.6
				c3.4,0.5,5.7,2.3,5.7,5.8c0,3.1-2.7,6-8,6c-5.5,0-8.1-2.4-8.5-6.1h4.1c0.3,1.9,1.9,2.7,4.3,2.7c2.4,0,3.9-0.7,3.9-2.4
				c0-1.4-0.9-2.1-3-2.5l-3.9-0.7c-2.8-0.5-4.8-2-4.8-4.9c0-3.1,2.4-5.7,7.6-5.7c4.5,0,7.2,2.2,7.6,5.4H1254z"/>
			<path class="st3" d="M1273.3,1036.3l12.8-5.6v-0.9l-12.8-5.6v-3.7l18.4,8.2v3l-18.4,8.2V1036.3z"/>
			<path class="st3" d="M1316.5,1028.3h-18.7v-3.5h18.7V1028.3z M1316.5,1035.7h-18.7v-3.5h18.7V1035.7z"/>
			<path class="st3" d="M1321.6,1037h5.9v-17.5h-0.9l-5.1,3.4v-4.3l5.1-3.5h5.1v21.9h5.5v3.7h-15.6V1037z"/>
			<path class="st3" d="M1359.8,1027.9c0,9.3-4.2,13.3-9.7,13.3c-5.6,0-9.7-4-9.7-13.3c0-9.3,4.2-13.3,9.7-13.3
				C1355.6,1014.6,1359.8,1018.6,1359.8,1027.9z M1355.5,1027.9c0-5.2-1.4-9.5-5.4-9.5s-5.5,4.3-5.5,9.5c0,5.2,1.4,9.5,5.5,9.5
				S1355.5,1033.1,1355.5,1027.9z"/>
			<path class="st3" d="M1383.1,1027.9c0,9.3-4.2,13.3-9.7,13.3c-5.6,0-9.7-4-9.7-13.3c0-9.3,4.2-13.3,9.7-13.3
				C1378.9,1014.6,1383.1,1018.6,1383.1,1027.9z M1378.8,1027.9c0-5.2-1.4-9.5-5.4-9.5s-5.5,4.3-5.5,9.5c0,5.2,1.4,9.5,5.5,9.5
				S1378.8,1033.1,1378.8,1027.9z"/>
			<path class="st3" d="M1406.3,1027.9c0,9.3-4.2,13.3-9.7,13.3c-5.6,0-9.7-4-9.7-13.3c0-9.3,4.2-13.3,9.7-13.3
				C1402.1,1014.6,1406.3,1018.6,1406.3,1027.9z M1402.1,1027.9c0-5.2-1.4-9.5-5.4-9.5s-5.5,4.3-5.5,9.5c0,5.2,1.4,9.5,5.5,9.5
				S1402.1,1033.1,1402.1,1027.9z"/>
			<path class="st3" d="M1429.6,1027.9c0,9.3-4.2,13.3-9.7,13.3c-5.6,0-9.7-4-9.7-13.3c0-9.3,4.2-13.3,9.7-13.3
				C1425.4,1014.6,1429.6,1018.6,1429.6,1027.9z M1425.3,1027.9c0-5.2-1.4-9.5-5.4-9.5s-5.5,4.3-5.5,9.5c0,5.2,1.4,9.5,5.5,9.5
				S1425.3,1033.1,1425.3,1027.9z"/>
			<path class="st3" d="M1452.9,1027.9c0,9.3-4.2,13.3-9.7,13.3c-5.6,0-9.7-4-9.7-13.3c0-9.3,4.2-13.3,9.7-13.3
				C1448.7,1014.6,1452.9,1018.6,1452.9,1027.9z M1448.6,1027.9c0-5.2-1.4-9.5-5.4-9.5s-5.5,4.3-5.5,9.5c0,5.2,1.4,9.5,5.5,9.5
				S1448.6,1033.1,1448.6,1027.9z"/>
		</g>
	</g>
</g>
<g>
	<path pointer-events="none" class="st0" d="M1106.4,825h381c22.2,0,40.2,13.3,40.2,29.6v64.1c0,16.3-18.1,29.6-40.2,29.6h-381
		c-22.2,0-40.2-13.3-40.2-29.6v-64.1C1066.2,838.2,1084.3,825,1106.4,825z"/>
	<g>
		<g>
			<path class="st1" d="M1156.2,864.9c0,5.6-3,9.8-8,9.8c-2.8,0-4.5-1-5.5-2.3h-0.9v1.8h-4v-26.6h4.1v9.8h0.9c1-1.3,2.6-2.3,5.3-2.3
				C1153.2,855.1,1156.2,859.3,1156.2,864.9z M1152.1,864.9c0-3.6-1.7-6.3-5.1-6.3c-3.6,0-5.2,3-5.2,6.3c0,3.3,1.5,6.3,5.2,6.3
				C1150.4,871.2,1152.1,868.5,1152.1,864.9z"/>
			<path class="st1" d="M1164.7,855.6v10.8c0,3,1.4,4.6,4.1,4.6c3,0,4.8-2.5,4.8-5.4v-9.9h4.1v18.6h-4v-1.8h-0.9
				c-1.1,1.4-2.9,2.3-5.4,2.3c-4.6,0-7-2.8-7-7.5v-11.6H1164.7z"/>
			<path class="st1" d="M1185.4,881.6l3.8-9.1l-7.9-16.8h4.4l5.2,11.2h1l4.7-11.2h4.2l-11.2,25.9H1185.4z"/>
			<path class="st1" d="M1226,872.5h-0.9c-1.1,1.4-2.9,2.2-5.5,2.2c-4.3,0-6.7-2.9-6.7-6.1c0-2.9,2-6.3,7.4-6.3h5.5v-0.5
				c0-2-1.2-3.4-3.9-3.4c-2.4,0-3.6,1-3.7,2.4h-4.1c0.2-3.5,3.3-5.6,7.7-5.6c4.8,0,8,2.1,8,6.7v12.4h-3.8V872.5z M1225.9,866.7v-1.4
				h-4.8c-2.6,0-3.9,1.1-3.9,3.1c0,1.9,1.4,3,3.8,3C1223.7,871.3,1225.9,869.3,1225.9,866.7z"/>
			<path class="st1" d="M1257.8,857.4h0.9v-9.8h4.1v26.6h-4v-1.8h-0.9c-1,1.3-2.7,2.3-5.5,2.3c-5,0-8-4.2-8-9.8c0-5.6,3-9.8,8-9.8
				C1255.2,855.1,1256.8,856.1,1257.8,857.4z M1258.8,864.9c0-3.3-1.5-6.3-5.2-6.3c-3.4,0-5.1,2.7-5.1,6.3c0,3.6,1.7,6.3,5.1,6.3
				C1257.2,871.2,1258.8,868.2,1258.8,864.9z"/>
			<path class="st1" d="M1280.1,872.5h-0.9c-1.1,1.4-2.9,2.2-5.5,2.2c-4.3,0-6.7-2.9-6.7-6.1c0-2.9,2-6.3,7.4-6.3h5.5v-0.5
				c0-2-1.2-3.4-3.9-3.4c-2.4,0-3.6,1-3.7,2.4h-4.1c0.2-3.5,3.3-5.6,7.7-5.6c4.8,0,8,2.1,8,6.7v12.4h-3.8V872.5z M1280,866.7v-1.4
				h-4.8c-2.6,0-3.9,1.1-3.9,3.1c0,1.9,1.4,3,3.8,3C1277.8,871.3,1280,869.3,1280,866.7z"/>
			<path class="st1" d="M1299,855.6v3.5h-4.4v9.1c0,1.6,0.8,2.5,2.9,2.5h1.5v3.6h-1.6c-4.1,0-6.9-1.2-6.9-5.5v-9.6h-3v-3.5h3v-5.4
				h4.1v5.4H1299z"/>
			<path class="st1" d="M1315.5,872.5h-0.9c-1.1,1.4-2.9,2.2-5.5,2.2c-4.3,0-6.7-2.9-6.7-6.1c0-2.9,2-6.3,7.4-6.3h5.5v-0.5
				c0-2-1.2-3.4-3.9-3.4c-2.4,0-3.6,1-3.7,2.4h-4.1c0.2-3.5,3.3-5.6,7.7-5.6c4.8,0,8,2.1,8,6.7v12.4h-3.8V872.5z M1315.4,866.7v-1.4
				h-4.8c-2.6,0-4,1.1-4,3.1c0,1.9,1.4,3,3.8,3C1313.2,871.3,1315.4,869.3,1315.4,866.7z"/>
			<path class="st1" d="M1351.3,868.3c-0.6,3.8-3.7,6.4-8.2,6.4c-5.8,0-9.2-4.1-9.2-9.8c0-5.7,3.4-9.8,9.2-9.8c4.6,0,7.5,2.5,8,6.1
				h-4.1c-0.5-1.6-1.7-2.6-3.9-2.6c-3.7,0-5.1,2.9-5.1,6.2c0,3.4,1.5,6.3,5.1,6.3c2.3,0,3.7-1.1,4.1-2.9H1351.3z"/>
			<path class="st1" d="M1372.5,865.3h-13.8c0.1,3.8,1.9,5.9,5.2,5.9c2.2,0,3.5-0.9,4.1-2.4h4.2c-0.7,3.5-3.5,5.9-8.3,5.9
				c-5.9,0-9.3-4.1-9.3-9.9s3.5-9.7,9.2-9.7c5.6,0,8.6,3.9,8.7,8.7V865.3z M1358.9,862.2h9.3c-0.3-2.1-1.7-3.8-4.5-3.8
				C1360.9,858.4,1359.4,860,1358.9,862.2z"/>
			<path class="st1" d="M1390.1,874.2v-10.8c0-3-1.4-4.6-4.1-4.6c-3,0-4.8,2.5-4.8,5.5v9.9h-4.1v-18.6h4v1.8h0.9
				c1.1-1.4,2.9-2.3,5.4-2.3c4.6,0,7,2.8,7,7.5v11.6H1390.1z"/>
			<path class="st1" d="M1409.3,855.6v3.5h-4.4v9.1c0,1.6,0.8,2.5,2.9,2.5h1.5v3.6h-1.6c-4.1,0-6.9-1.2-6.9-5.5v-9.6h-3v-3.5h3v-5.4
				h4.1v5.4H1409.3z"/>
			<path class="st1" d="M1430.7,865.3H1417c0.1,3.8,1.9,5.9,5.2,5.9c2.2,0,3.5-0.9,4.1-2.4h4.2c-0.7,3.5-3.5,5.9-8.3,5.9
				c-5.9,0-9.3-4.1-9.3-9.9s3.5-9.7,9.2-9.7c5.6,0,8.6,3.9,8.7,8.7V865.3z M1417.2,862.2h9.3c-0.3-2.1-1.7-3.8-4.5-3.8
				C1419.1,858.4,1417.7,860,1417.2,862.2z"/>
			<path class="st1" d="M1447,859.5h-1.7c-3.8,0-5.8,2.2-5.8,6.1v8.7h-4.1v-18.6h4v2.2h0.9c0.8-1,2.3-2.2,5.2-2.2h1.6V859.5z"/>
			<path class="st1" d="M1107.2,908.8c0,5.7-3.5,9.8-9.4,9.8s-9.4-4.1-9.4-9.8c0-5.7,3.5-9.8,9.4-9.8S1107.2,903.1,1107.2,908.8z
				 M1103.1,908.8c0-3.3-1.6-6.3-5.3-6.3s-5.3,3-5.3,6.3c0,3.3,1.6,6.3,5.3,6.3S1103.1,912.1,1103.1,908.8z"/>
			<path class="st1" d="M1123.5,903.4h-1.7c-3.8,0-5.8,2.2-5.8,6.1v8.7h-4.1v-18.6h4v2.2h0.9c0.8-1,2.3-2.2,5.2-2.2h1.6V903.4z"/>
			<path class="st1" d="M1149.1,916.4h-0.9c-1.1,1.4-2.9,2.2-5.5,2.2c-4.3,0-6.7-2.9-6.7-6.1c0-2.9,2-6.3,7.4-6.3h5.5v-0.5
				c0-2-1.2-3.4-3.9-3.4c-2.4,0-3.6,1-3.7,2.4h-4.1c0.2-3.5,3.3-5.6,7.7-5.6c4.8,0,8,2.1,8,6.7v12.4h-3.8V916.4z M1149,910.6v-1.4
				h-4.8c-2.6,0-3.9,1.1-3.9,3.1c0,1.9,1.4,3,3.8,3C1146.8,915.2,1149,913.2,1149,910.6z"/>
			<path class="st1" d="M1185.9,899.5v25.9h-4.1v-9.1h-0.9c-1,1.3-2.6,2.3-5.3,2.3c-5,0-8-4.1-8-9.8c0-5.6,3-9.8,8-9.8
				c2.8,0,4.5,1,5.5,2.3h0.9v-1.8H1185.9z M1171.6,908.8c0,3.6,1.7,6.3,5.1,6.3c3.6,0,5.2-3,5.2-6.3c0-3.3-1.5-6.3-5.2-6.3
				C1173.3,902.5,1171.6,905.2,1171.6,908.8z"/>
			<path class="st1" d="M1195.5,899.5v10.8c0,3,1.4,4.6,4.1,4.6c3,0,4.8-2.5,4.8-5.5v-9.9h4.1v18.6h-4v-1.8h-0.9
				c-1.1,1.4-2.9,2.3-5.4,2.3c-4.6,0-7-2.8-7-7.5v-11.6H1195.5z"/>
			<path class="st1" d="M1225.9,916.4h-0.9c-1.1,1.4-2.9,2.2-5.5,2.2c-4.3,0-6.7-2.9-6.7-6.1c0-2.9,2-6.3,7.4-6.3h5.5v-0.5
				c0-2-1.2-3.4-3.9-3.4c-2.4,0-3.6,1-3.7,2.4h-4.1c0.2-3.5,3.3-5.6,7.7-5.6c4.8,0,8,2.1,8,6.7v12.4h-3.8V916.4z M1225.8,910.6v-1.4
				h-4.8c-2.6,0-4,1.1-4,3.1c0,1.9,1.4,3,3.8,3C1223.6,915.2,1225.8,913.2,1225.8,910.6z"/>
			<path class="st1" d="M1248.3,918.1v-10.8c0-3-1.4-4.6-4.1-4.6c-3,0-4.8,2.5-4.8,5.5v9.9h-4.1v-18.6h4v1.8h0.9
				c1.1-1.4,2.9-2.3,5.4-2.3c4.6,0,7,2.8,7,7.5v11.6H1248.3z"/>
			<path class="st1" d="M1267.4,899.5v3.5h-4.4v9.1c0,1.6,0.8,2.5,2.9,2.5h1.5v3.6h-1.6c-4.1,0-6.9-1.2-6.9-5.5V903h-3v-3.5h3v-5.4
				h4.1v5.4H1267.4z"/>
			<path class="st1" d="M1276.2,899.5v10.8c0,3,1.4,4.6,4.1,4.6c3,0,4.8-2.5,4.8-5.5v-9.9h4.1v18.6h-4v-1.8h-0.9
				c-1.1,1.4-2.9,2.3-5.4,2.3c-4.6,0-7-2.8-7-7.5v-11.6H1276.2z"/>
			<path class="st1" d="M1321.7,906.2v11.9h-4.1v-11.2c0-2.8-1-4.2-3.2-4.2c-2.6,0-4,2-4,4.8v10.6h-4.1V907c0-2.7-1-4.2-3.2-4.2
				c-2.7,0-4,2.4-4,5.3v10.1h-4.1v-18.6h4v1.7h0.9c0.9-1.4,2.4-2.2,4.7-2.2c2.2,0,3.8,0.8,4.8,2.3h0.9c1.1-1.5,2.9-2.3,5.2-2.3
				C1319.8,899,1321.7,901.9,1321.7,906.2z"/>
			<path class="st1" d="M1353.6,912.2c-0.6,3.8-3.7,6.4-8.2,6.4c-5.8,0-9.2-4.1-9.2-9.8c0-5.7,3.4-9.8,9.2-9.8c4.6,0,7.5,2.5,8,6.1
				h-4.1c-0.5-1.6-1.7-2.6-3.9-2.6c-3.7,0-5.1,2.9-5.1,6.2c0,3.4,1.5,6.3,5.1,6.3c2.3,0,3.7-1.1,4.1-2.9H1353.6z"/>
			<path class="st1" d="M1375.8,908.8c0,5.7-3.5,9.8-9.4,9.8s-9.4-4.1-9.4-9.8c0-5.7,3.5-9.8,9.4-9.8S1375.8,903.1,1375.8,908.8z
				 M1371.7,908.8c0-3.3-1.6-6.3-5.3-6.3s-5.3,3-5.3,6.3c0,3.3,1.6,6.3,5.3,6.3S1371.7,912.1,1371.7,908.8z"/>
			<path class="st1" d="M1407.1,906.2v11.9h-4.1v-11.2c0-2.8-1-4.2-3.2-4.2c-2.6,0-4,2-4,4.8v10.6h-4.1V907c0-2.7-1-4.2-3.2-4.2
				c-2.7,0-4,2.4-4,5.3v10.1h-4.1v-18.6h4v1.7h0.9c0.9-1.4,2.4-2.2,4.7-2.2c2.2,0,3.8,0.8,4.8,2.3h0.9c1.1-1.5,2.9-2.3,5.2-2.3
				C1405.2,899,1407.1,901.9,1407.1,906.2z"/>
			<path class="st1" d="M1416.5,899.5v1.8h0.9c1-1.3,2.7-2.3,5.5-2.3c5,0,8,4.2,8,9.8c0,5.7-3,9.8-8,9.8c-2.7,0-4.4-1-5.3-2.3h-0.9
				v9.1h-4.1v-25.9H1416.5z M1416.6,908.8c0,3.3,1.5,6.3,5.2,6.3c3.4,0,5.1-2.7,5.1-6.3c0-3.6-1.7-6.3-5.1-6.3
				C1418.1,902.5,1416.6,905.5,1416.6,908.8z"/>
			<path class="st1" d="M1439.4,899.5v10.8c0,3,1.4,4.6,4.1,4.6c3,0,4.8-2.5,4.8-5.5v-9.9h4.1v18.6h-4v-1.8h-0.9
				c-1.1,1.4-2.9,2.3-5.4,2.3c-4.6,0-7-2.8-7-7.5v-11.6H1439.4z"/>
			<path class="st1" d="M1467.8,899.5v3.5h-4.4v9.1c0,1.6,0.8,2.5,2.9,2.5h1.5v3.6h-1.6c-4.1,0-6.9-1.2-6.9-5.5V903h-3v-3.5h3v-5.4
				h4.1v5.4H1467.8z"/>
			<path class="st1" d="M1489.3,909.2h-13.8c0.1,3.8,1.9,5.9,5.2,5.9c2.2,0,3.5-0.9,4.1-2.4h4.2c-0.7,3.5-3.5,5.9-8.3,5.9
				c-5.9,0-9.3-4.1-9.3-9.9s3.5-9.7,9.2-9.7c5.6,0,8.6,3.9,8.7,8.7V909.2z M1475.7,906.1h9.3c-0.3-2.1-1.7-3.8-4.5-3.8
				C1477.6,902.3,1476.2,903.9,1475.7,906.1z"/>
			<path class="st1" d="M1505.5,903.4h-1.7c-3.8,0-5.8,2.2-5.8,6.1v8.7h-4.1v-18.6h4v2.2h0.9c0.8-1,2.3-2.2,5.2-2.2h1.6V903.4z"/>
		</g>
	</g>
</g>
<g>
	<path pointer-events="none" class="st2" d="M576.5,304.4h323.2c18.8,0,34.1,13.3,34.1,29.6V398c0,16.3-15.3,29.6-34.1,29.6H576.5
		c-18.8,0-34.1-13.3-34.1-29.6V334C542.4,317.7,557.7,304.4,576.5,304.4z"/>
	<g>
		<g>
			<path class="st3" d="M624.7,362.2h0.9v-9.8h4.1v26.6h-4v-1.8h-0.9c-1,1.3-2.7,2.3-5.5,2.3c-5,0-8-4.2-8-9.8c0-5.6,3-9.8,8-9.8
				C622.1,360,623.7,360.9,624.7,362.2z M625.7,369.7c0-3.3-1.5-6.3-5.2-6.3c-3.4,0-5.1,2.7-5.1,6.3c0,3.6,1.7,6.3,5.1,6.3
				C624.2,376,625.7,373.1,625.7,369.7z"/>
			<path class="st3" d="M653.2,369.7c0,5.7-3.5,9.8-9.4,9.8s-9.4-4.1-9.4-9.8c0-5.7,3.5-9.8,9.4-9.8S653.2,364.1,653.2,369.7z
				 M649,369.7c0-3.3-1.6-6.3-5.3-6.3c-3.6,0-5.3,3-5.3,6.3c0,3.3,1.6,6.3,5.3,6.3C647.4,376,649,373.1,649,369.7z"/>
			<path class="st3" d="M661.9,352.5v26.6h-4.1v-26.6H661.9z"/>
			<path class="st3" d="M671.7,352.5v26.6h-4.1v-26.6H671.7z"/>
			<path class="st3" d="M689.1,377.3h-0.9c-1.1,1.4-2.9,2.2-5.5,2.2c-4.3,0-6.7-2.9-6.7-6.1c0-2.9,2-6.3,7.4-6.3h5.5v-0.5
				c0-2-1.2-3.4-3.9-3.4c-2.4,0-3.6,1-3.7,2.4h-4.1c0.2-3.5,3.3-5.6,7.7-5.6c4.8,0,8,2.1,8,6.7v12.4h-3.8V377.3z M688.9,371.5v-1.4
				h-4.8c-2.6,0-3.9,1.1-3.9,3.1c0,1.9,1.4,3,3.8,3C686.8,376.2,688.9,374.1,688.9,371.5z"/>
			<path class="st3" d="M710,364.3h-1.7c-3.8,0-5.8,2.2-5.8,6.1v8.7h-4.1v-18.6h4v2.2h0.9c0.8-1,2.3-2.2,5.2-2.2h1.6V364.3z"/>
			<path class="st3" d="M724.3,365.4c-0.3-1.6-1.8-2-3.7-2c-2,0-3.4,0.6-3.4,1.9c0,1.2,0.8,1.6,2.4,1.9l3.6,0.6
				c3.4,0.5,5.7,2.3,5.7,5.8c0,3.1-2.7,6-8,6c-5.5,0-8.1-2.4-8.5-6.1h4.1c0.3,1.9,1.9,2.7,4.3,2.7c2.4,0,3.9-0.7,3.9-2.4
				c0-1.4-0.9-2.1-3-2.5l-3.9-0.7c-2.8-0.5-4.8-2-4.8-4.9c0-3.1,2.4-5.7,7.6-5.7c4.5,0,7.2,2.2,7.6,5.4H724.3z"/>
			<path class="st3" d="M762.1,378.3l-18.4-8.2v-3l18.4-8.2v3.7l-12.8,5.6v0.9l12.8,5.6V378.3z"/>
			<path class="st3" d="M777.1,360.8c0.3-5.3,3.9-7.9,9-7.9c5,0,8.6,2.8,8.6,8c0,3.5-2.3,6.4-5.2,8.7l-5.9,4.8v0.9h11.9v3.7h-18.3
				v-4.6l9.2-7.2c1.9-1.5,4.1-3.5,4.1-6.3c0-2.8-1.8-4.2-4.4-4.2c-2.5,0-4.3,1.3-4.6,4.1H777.1z"/>
			<path class="st3" d="M818.4,366.3c0,9.3-4.2,13.3-9.7,13.3c-5.6,0-9.7-4-9.7-13.3c0-9.3,4.2-13.3,9.7-13.3
				C814.2,352.9,818.4,357,818.4,366.3z M814.1,366.3c0-5.2-1.4-9.5-5.4-9.5s-5.5,4.3-5.5,9.5c0,5.2,1.4,9.5,5.5,9.5
				S814.1,371.5,814.1,366.3z"/>
			<path class="st3" d="M841.7,366.3c0,9.3-4.2,13.3-9.7,13.3c-5.6,0-9.7-4-9.7-13.3c0-9.3,4.2-13.3,9.7-13.3
				C837.5,352.9,841.7,357,841.7,366.3z M837.4,366.3c0-5.2-1.4-9.5-5.5-9.5c-4.1,0-5.4,4.3-5.4,9.5c0,5.2,1.4,9.5,5.4,9.5
				C836,375.7,837.4,371.5,837.4,366.3z"/>
			<path class="st3" d="M864.9,366.3c0,9.3-4.2,13.3-9.7,13.3c-5.6,0-9.7-4-9.7-13.3c0-9.3,4.2-13.3,9.7-13.3
				C860.7,352.9,864.9,357,864.9,366.3z M860.6,366.3c0-5.2-1.4-9.5-5.5-9.5c-4.1,0-5.4,4.3-5.4,9.5c0,5.2,1.4,9.5,5.4,9.5
				C859.3,375.7,860.6,371.5,860.6,366.3z"/>
		</g>
	</g>
</g>
<g>
	<path pointer-events="none" class="st5" d="M77.7,304.4h323.2c18.8,0,34.1,13.3,34.1,29.6V398c0,16.3-15.3,29.6-34.1,29.6H77.7
		c-18.8,0-34.1-13.3-34.1-29.6V334C43.6,317.7,58.9,304.4,77.7,304.4z"/>
	<g>
		<path class="st3" d="M149.5,366.3c0,5.6-3,9.8-8,9.8c-2.8,0-4.5-1-5.5-2.3h-0.9v1.8h-4v-26.6h4.1v9.8h0.9c1-1.3,2.6-2.3,5.3-2.3
			C146.5,356.5,149.5,360.7,149.5,366.3z M145.4,366.3c0-3.6-1.7-6.3-5.1-6.3c-3.6,0-5.2,3-5.2,6.3c0,3.3,1.5,6.3,5.2,6.3
			C143.7,372.6,145.4,369.9,145.4,366.3z"/>
		<path class="st3" d="M158,357v10.8c0,3,1.4,4.6,4.1,4.6c3,0,4.8-2.5,4.8-5.4V357h4.1v18.6h-4v-1.8h-0.9c-1.1,1.4-2.9,2.3-5.4,2.3
			c-4.6,0-7-2.8-7-7.5V357H158z"/>
		<path class="st3" d="M178.7,383l3.8-9.1l-7.9-16.8h4.4l5.2,11.2h1l4.7-11.2h4.2L182.9,383H178.7z"/>
		<path class="st3" d="M219.3,373.9h-0.9c-1.1,1.4-2.9,2.2-5.5,2.2c-4.3,0-6.7-2.9-6.7-6.1c0-2.9,2-6.3,7.4-6.3h5.5v-0.5
			c0-2-1.2-3.4-3.9-3.4c-2.4,0-3.6,1-3.7,2.4h-4.1c0.2-3.5,3.3-5.6,7.7-5.6c4.8,0,8,2.1,8,6.7v12.4h-3.8V373.9z M219.2,368.1v-1.4
			h-4.8c-2.6,0-3.9,1.1-3.9,3.1c0,1.9,1.4,3,3.8,3C217,372.8,219.2,370.7,219.2,368.1z"/>
		<path class="st3" d="M242.9,349.1v26.6h-4.1v-26.6H242.9z"/>
		<path class="st3" d="M260.3,373.9h-0.9c-1.1,1.4-2.9,2.2-5.5,2.2c-4.3,0-6.7-2.9-6.7-6.1c0-2.9,2-6.3,7.4-6.3h5.5v-0.5
			c0-2-1.2-3.4-3.9-3.4c-2.4,0-3.6,1-3.7,2.4h-4.1c0.2-3.5,3.3-5.6,7.7-5.6c4.8,0,8,2.1,8,6.7v12.4h-3.8V373.9z M260.1,368.1v-1.4
			h-4.8c-2.6,0-3.9,1.1-3.9,3.1c0,1.9,1.4,3,3.8,3C257.9,372.8,260.1,370.7,260.1,368.1z"/>
		<path class="st3" d="M273.5,357v1.8h0.9c1-1.3,2.7-2.3,5.5-2.3c5,0,8,4.2,8,9.8c0,5.7-3,9.8-8,9.8c-2.7,0-4.4-1-5.3-2.3h-0.9v9.1
			h-4.1V357H273.5z M273.6,366.3c0,3.3,1.5,6.3,5.2,6.3c3.4,0,5.1-2.7,5.1-6.3c0-3.6-1.7-6.3-5.1-6.3
			C275.1,360.1,273.6,363.1,273.6,366.3z"/>
		<path class="st3" d="M302.1,357v3.5h-4.4v9.1c0,1.6,0.8,2.5,2.9,2.5h1.5v3.6h-1.6c-4.1,0-6.9-1.2-6.9-5.5v-9.6h-3V357h3v-5.4h4.1
			v5.4H302.1z"/>
		<path class="st3" d="M324.5,366.3c0,5.7-3.5,9.8-9.4,9.8s-9.4-4.1-9.4-9.8c0-5.7,3.5-9.8,9.4-9.8S324.5,360.6,324.5,366.3z
			 M320.4,366.3c0-3.3-1.6-6.3-5.3-6.3c-3.6,0-5.3,3-5.3,6.3c0,3.3,1.6,6.3,5.3,6.3C318.7,372.6,320.4,369.6,320.4,366.3z"/>
		<path class="st3" d="M333.1,357v1.8h0.9c1-1.3,2.7-2.3,5.5-2.3c5,0,8,4.2,8,9.8c0,5.7-3,9.8-8,9.8c-2.7,0-4.4-1-5.3-2.3h-0.9v9.1
			h-4.1V357H333.1z M333.1,366.3c0,3.3,1.5,6.3,5.2,6.3c3.4,0,5.1-2.7,5.1-6.3c0-3.6-1.7-6.3-5.1-6.3
			C334.7,360.1,333.1,363.1,333.1,366.3z"/>
	</g>
</g>
<g>
	<path pointer-events="none" class="st5" d="M331.8,564.6h323.2c18.8,0,34.1,13.3,34.1,29.6v64.1c0,16.3-15.3,29.6-34.1,29.6H331.8
		c-18.8,0-34.1-13.3-34.1-29.6v-64.1C297.6,577.9,312.9,564.6,331.8,564.6z"/>
	<g>
		<path class="st3" d="M383.3,604.6c0,5.6-3,9.8-8,9.8c-2.8,0-4.5-1-5.5-2.3h-0.9v1.8h-4v-26.6h4.1v9.8h0.9c1-1.3,2.6-2.3,5.3-2.3
			C380.2,594.8,383.3,599,383.3,604.6z M379.1,604.6c0-3.6-1.7-6.3-5.1-6.3c-3.6,0-5.2,3-5.2,6.3c0,3.3,1.5,6.3,5.2,6.3
			C377.4,610.9,379.1,608.2,379.1,604.6z"/>
		<path class="st3" d="M391.7,595.3v10.8c0,3,1.4,4.6,4.1,4.6c3,0,4.8-2.5,4.8-5.4v-9.9h4.1v18.6h-4v-1.8H400
			c-1.1,1.4-2.9,2.3-5.4,2.3c-4.6,0-7-2.8-7-7.5v-11.6H391.7z"/>
		<path class="st3" d="M412.4,621.2l3.8-9.1l-7.9-16.8h4.4l5.2,11.2h1l4.7-11.2h4.2l-11.2,25.9H412.4z"/>
		<path class="st3" d="M453,612.2h-0.9c-1.1,1.4-2.9,2.2-5.5,2.2c-4.3,0-6.7-2.9-6.7-6.1c0-2.9,2-6.3,7.4-6.3h5.5v-0.5
			c0-2-1.2-3.4-3.9-3.4c-2.4,0-3.6,1-3.7,2.4h-4.1c0.2-3.5,3.3-5.6,7.7-5.6c4.8,0,8,2.1,8,6.7v12.4H453V612.2z M452.9,606.4v-1.4
			h-4.8c-2.6,0-3.9,1.1-3.9,3.1c0,1.9,1.4,3,3.8,3C450.7,611,452.9,609,452.9,606.4z"/>
		<path class="st3" d="M476.5,595.3v1.8h0.9c1-1.3,2.7-2.3,5.5-2.3c5,0,8,4.2,8,9.8c0,5.7-3,9.8-8,9.8c-2.7,0-4.4-1-5.3-2.3h-0.9
			v9.1h-4.1v-25.9H476.5z M476.5,604.6c0,3.3,1.5,6.3,5.2,6.3c3.4,0,5.1-2.7,5.1-6.3c0-3.6-1.7-6.3-5.1-6.3
			C478.1,598.3,476.5,601.3,476.5,604.6z"/>
		<path class="st3" d="M512.3,604.9h-13.8c0.1,3.8,1.9,5.9,5.2,5.9c2.2,0,3.5-0.9,4.1-2.4h4.2c-0.7,3.5-3.5,5.9-8.3,5.9
			c-5.9,0-9.3-4.1-9.3-9.9s3.5-9.7,9.2-9.7c5.6,0,8.6,3.9,8.7,8.7V604.9z M498.7,601.9h9.3c-0.3-2.1-1.7-3.8-4.5-3.8
			C500.6,598.1,499.2,599.7,498.7,601.9z"/>
		<path class="st3" d="M528.5,599.1h-1.7c-3.8,0-5.8,2.2-5.8,6.1v8.7h-4.1v-18.6h4v2.2h0.9c0.8-1,2.3-2.2,5.2-2.2h1.6V599.1z"/>
		<path class="st3" d="M542.8,600.2c-0.3-1.6-1.8-2-3.7-2c-2,0-3.4,0.6-3.4,1.9c0,1.2,0.8,1.6,2.4,1.9l3.6,0.6
			c3.4,0.5,5.7,2.3,5.7,5.8c0,3.1-2.7,6-8,6c-5.5,0-8.1-2.4-8.5-6.1h4.1c0.3,1.9,1.9,2.7,4.3,2.7c2.4,0,3.9-0.7,3.9-2.4
			c0-1.4-0.9-2.1-3-2.5l-3.9-0.7c-2.8-0.5-4.8-2-4.8-4.9c0-3.1,2.4-5.7,7.6-5.7c4.5,0,7.2,2.2,7.6,5.4H542.8z"/>
		<path class="st3" d="M569.5,604.6c0,5.7-3.5,9.8-9.4,9.8s-9.4-4.1-9.4-9.8c0-5.7,3.5-9.8,9.4-9.8S569.5,598.9,569.5,604.6z
			 M565.3,604.6c0-3.3-1.6-6.3-5.3-6.3c-3.6,0-5.3,3-5.3,6.3c0,3.3,1.6,6.3,5.3,6.3C563.7,610.9,565.3,607.9,565.3,604.6z"/>
		<path class="st3" d="M587.2,613.9v-10.8c0-3-1.4-4.6-4.1-4.6c-3,0-4.8,2.5-4.8,5.4v9.9h-4.1v-18.6h4v1.8h0.9
			c1.1-1.4,2.9-2.3,5.4-2.3c4.6,0,7,2.8,7,7.5v11.6H587.2z"/>
		<path class="st3" d="M608.4,612.2h-0.9c-1.1,1.4-2.9,2.2-5.5,2.2c-4.3,0-6.7-2.9-6.7-6.1c0-2.9,2-6.3,7.4-6.3h5.5v-0.5
			c0-2-1.2-3.4-3.9-3.4c-2.4,0-3.6,1-3.7,2.4h-4.1c0.2-3.5,3.3-5.6,7.7-5.6c4.8,0,8,2.1,8,6.7v12.4h-3.8V612.2z M608.2,606.4v-1.4
			h-4.8c-2.6,0-3.9,1.1-3.9,3.1c0,1.9,1.4,3,3.8,3C606.1,611,608.2,609,608.2,606.4z"/>
		<path class="st3" d="M621.8,587.3v26.6h-4.1v-26.6H621.8z"/>
		<path class="st3" d="M426.5,651.8c-0.6,3.8-3.7,6.4-8.2,6.4c-5.8,0-9.2-4.1-9.2-9.8s3.4-9.8,9.2-9.8c4.6,0,7.5,2.5,8,6.1h-4.1
			c-0.5-1.6-1.7-2.6-3.9-2.6c-3.7,0-5.1,2.9-5.1,6.2c0,3.4,1.5,6.3,5.1,6.3c2.3,0,3.7-1.1,4.1-2.9H426.5z"/>
		<path class="st3" d="M448.7,648.5c0,5.7-3.5,9.8-9.4,9.8s-9.4-4.1-9.4-9.8c0-5.7,3.5-9.8,9.4-9.8S448.7,642.8,448.7,648.5z
			 M444.5,648.5c0-3.3-1.6-6.3-5.3-6.3c-3.6,0-5.3,3-5.3,6.3c0,3.3,1.6,6.3,5.3,6.3C442.9,654.7,444.5,651.8,444.5,648.5z"/>
		<path class="st3" d="M480,645.9v11.9h-4.1v-11.2c0-2.8-1-4.2-3.2-4.2c-2.6,0-4,2-4,4.8v10.6h-4.1v-11.2c0-2.7-1-4.2-3.2-4.2
			c-2.7,0-4,2.4-4,5.3v10.1h-4.1v-18.6h4v1.7h0.9c0.9-1.4,2.4-2.2,4.7-2.2c2.2,0,3.8,0.8,4.8,2.3h0.9c1.1-1.5,2.9-2.3,5.2-2.3
			C478,638.7,480,641.5,480,645.9z"/>
		<path class="st3" d="M489.4,639.2v1.8h0.9c1-1.3,2.7-2.3,5.5-2.3c5,0,8,4.2,8,9.8c0,5.7-3,9.8-8,9.8c-2.7,0-4.4-1-5.3-2.3h-0.9
			v9.1h-4.1v-25.9H489.4z M489.4,648.5c0,3.3,1.5,6.3,5.2,6.3c3.4,0,5.1-2.7,5.1-6.3c0-3.6-1.7-6.3-5.1-6.3
			C491,642.2,489.4,645.2,489.4,648.5z"/>
		<path class="st3" d="M512.3,639.2V650c0,3,1.4,4.6,4.1,4.6c3,0,4.8-2.5,4.8-5.4v-9.9h4.1v18.6h-4V656h-0.9
			c-1.1,1.4-2.9,2.3-5.4,2.3c-4.6,0-7-2.8-7-7.5v-11.6H512.3z"/>
		<path class="st3" d="M540.6,639.2v3.5h-4.4v9.1c0,1.6,0.8,2.5,2.9,2.5h1.5v3.6H539c-4.1,0-6.9-1.2-6.9-5.5v-9.6h-3v-3.5h3v-5.4
			h4.1v5.4H540.6z"/>
		<path class="st3" d="M562.1,648.8h-13.8c0.1,3.8,1.9,5.9,5.2,5.9c2.2,0,3.5-0.9,4.1-2.4h4.2c-0.7,3.5-3.5,5.9-8.3,5.9
			c-5.9,0-9.3-4.1-9.3-9.9s3.5-9.7,9.2-9.7c5.6,0,8.6,3.9,8.7,8.7V648.8z M548.5,645.7h9.3c-0.3-2.1-1.7-3.8-4.5-3.8
			C550.5,642,549,643.6,548.5,645.7z"/>
		<path class="st3" d="M578.3,643h-1.7c-3.8,0-5.8,2.2-5.8,6.1v8.7h-4.1v-18.6h4v2.2h0.9c0.8-1,2.3-2.2,5.2-2.2h1.6V643z"/>
	</g>
</g>
<g>
	<path pointer-events="none" class="st5" d="M665.7,825h323.2c18.8,0,34.1,13.3,34.1,29.6v64.1c0,16.3-15.3,29.6-34.1,29.6H665.7
		c-18.8,0-34.1-13.3-34.1-29.6v-64.1C631.6,838.2,646.9,825,665.7,825z"/>
	<g>
		<path class="st3" d="M736.5,886.9c0,5.6-3,9.8-8,9.8c-2.8,0-4.5-1-5.5-2.3h-0.9v1.8h-4v-26.6h4.1v9.8h0.9c1-1.3,2.6-2.3,5.3-2.3
			C733.4,877.1,736.5,881.3,736.5,886.9z M732.3,886.9c0-3.6-1.7-6.3-5.1-6.3c-3.6,0-5.2,3-5.2,6.3c0,3.3,1.5,6.3,5.2,6.3
			C730.7,893.1,732.3,890.5,732.3,886.9z"/>
		<path class="st3" d="M745,877.6v10.8c0,3,1.4,4.6,4.1,4.6c3,0,4.8-2.5,4.8-5.5v-9.9h4.1v18.6h-4v-1.8h-0.9
			c-1.1,1.4-2.9,2.3-5.4,2.3c-4.6,0-7-2.8-7-7.5v-11.6H745z"/>
		<path class="st3" d="M765.6,903.5l3.8-9.1l-7.9-16.8h4.4l5.2,11.2h1l4.7-11.2h4.2l-11.2,25.9H765.6z"/>
		<path class="st3" d="M806.3,894.5h-0.9c-1.1,1.4-2.9,2.2-5.5,2.2c-4.3,0-6.7-2.9-6.7-6.1c0-2.9,2-6.3,7.4-6.3h5.5v-0.5
			c0-2-1.2-3.4-3.9-3.4c-2.4,0-3.6,1-3.7,2.4h-4.1c0.2-3.5,3.3-5.6,7.7-5.6c4.8,0,8,2.1,8,6.7v12.4h-3.8V894.5z M806.1,888.6v-1.4
			h-4.8c-2.6,0-3.9,1.1-3.9,3.1c0,1.9,1.4,3,3.8,3C804,893.3,806.1,891.2,806.1,888.6z"/>
		<path class="st3" d="M836.1,882.5c-0.3-1.6-1.8-2-3.7-2c-2,0-3.4,0.6-3.4,1.9c0,1.2,0.8,1.6,2.4,1.9l3.6,0.6
			c3.4,0.5,5.7,2.3,5.7,5.8c0,3.1-2.7,6-8,6c-5.5,0-8.1-2.4-8.5-6.1h4.1c0.3,1.9,1.9,2.7,4.3,2.7c2.4,0,3.9-0.7,3.9-2.4
			c0-1.4-0.9-2.1-3-2.5l-3.9-0.7c-2.8-0.5-4.8-2-4.8-4.9c0-3.1,2.4-5.7,7.6-5.7c4.5,0,7.2,2.2,7.6,5.5H836.1z"/>
		<path class="st3" d="M861.9,887.2h-13.8c0.1,3.8,1.9,5.9,5.2,5.9c2.2,0,3.5-0.9,4.1-2.4h4.2c-0.7,3.5-3.5,5.9-8.3,5.9
			c-5.9,0-9.3-4.1-9.3-9.9s3.5-9.7,9.2-9.7c5.6,0,8.6,3.9,8.7,8.7V887.2z M848.3,884.1h9.3c-0.3-2.1-1.7-3.8-4.5-3.8
			C850.3,880.4,848.8,882,848.3,884.1z"/>
		<path class="st3" d="M878.1,881.4h-1.7c-3.8,0-5.8,2.2-5.8,6.1v8.7h-4.1v-18.6h4v2.2h0.9c0.8-1,2.3-2.2,5.2-2.2h1.6V881.4z"/>
		<path class="st3" d="M881.3,877.6h4.2l4.4,14.7h1.7l4.3-14.7h4.2l-5.8,18.6h-7.3L881.3,877.6z"/>
		<path class="st3" d="M920.4,887.2h-13.8c0.1,3.8,1.9,5.9,5.2,5.9c2.2,0,3.5-0.9,4.1-2.4h4.2c-0.7,3.5-3.5,5.9-8.3,5.9
			c-5.9,0-9.3-4.1-9.3-9.9s3.5-9.7,9.2-9.7c5.6,0,8.6,3.9,8.7,8.7V887.2z M906.8,884.1h9.3c-0.3-2.1-1.7-3.8-4.5-3.8
			C908.7,880.4,907.3,882,906.8,884.1z"/>
		<path class="st3" d="M936.6,881.4h-1.7c-3.8,0-5.8,2.2-5.8,6.1v8.7H925v-18.6h4v2.2h0.9c0.8-1,2.3-2.2,5.2-2.2h1.6V881.4z"/>
	</g>
</g>
<g>
	<g>
		<path class="st6" d="M1245.3,796.5l-3.5,16c-0.7,3.3-4,5.3-7.3,4.6l-16-3.5"/>
		<line class="st6" x1="1143.8" y1="694.9" x2="1235.8" y2="811.1"/>
	</g>
	<rect x="1143.8" y="722.9" class="st1" width="88.1" height="26.4"/>
	<g>
		<path class="st6" d="M833,813.5l-16,3.5c-3.3,0.7-6.6-1.3-7.3-4.6l-3.5-16"/>
		<line class="st6" x1="815.7" y1="811.1" x2="907.8" y2="694.9"/>
	</g>
	<rect x="823.7" y="723.9" class="st1" width="88.1" height="26.4"/>
	<g>
		<path class="st3" d="M841.6,729.7v3.5h-4.4v9.1c0,1.6,0.8,2.5,2.9,2.5h1.5v3.6h-1.6c-4.1,0-6.9-1.2-6.9-5.5v-9.6h-3v-3.5h3v-5.4
			h4.1v5.4H841.6z"/>
		<path class="st3" d="M858.1,733.5h-1.7c-3.8,0-5.8,2.2-5.8,6.1v8.7h-4.1v-18.6h4v2.2h0.9c0.8-1,2.3-2.2,5.2-2.2h1.6V733.5z"/>
		<path class="st3" d="M865.8,729.7v10.8c0,3,1.4,4.6,4.1,4.6c3,0,4.8-2.5,4.8-5.4v-9.9h4.1v18.6h-4v-1.8h-0.9
			c-1.1,1.4-2.9,2.3-5.4,2.3c-4.6,0-7-2.8-7-7.5v-11.6H865.8z"/>
		<path class="st3" d="M901.4,739.3h-13.8c0.1,3.8,1.9,5.9,5.2,5.9c2.2,0,3.5-0.9,4.1-2.4h4.2c-0.7,3.5-3.5,5.9-8.3,5.9
			c-5.9,0-9.3-4.1-9.3-9.9s3.5-9.7,9.2-9.7c5.6,0,8.6,3.9,8.7,8.7V739.3z M887.8,736.3h9.3c-0.3-2.1-1.7-3.8-4.5-3.8
			C889.8,732.5,888.3,734.1,887.8,736.3z"/>
	</g>
	<g>
		<path class="st3" d="M1151.8,733.2v15.1h-4.1v-15.1h-3v-3.5h3V728c0-4.4,2.7-6.3,6.9-6.3h2.1v3.5h-2c-2.1,0-2.8,1.4-2.8,2.9v1.5
			h4.9v3.5H1151.8z"/>
		<path class="st3" d="M1172.3,746.6h-0.9c-1.1,1.4-2.9,2.2-5.5,2.2c-4.3,0-6.7-2.9-6.7-6.1c0-2.9,2-6.3,7.4-6.3h5.5v-0.5
			c0-2-1.2-3.4-3.9-3.4c-2.4,0-3.6,1-3.7,2.4h-4.1c0.2-3.5,3.3-5.6,7.7-5.6c4.8,0,8,2.1,8,6.7v12.4h-3.8V746.6z M1172.2,740.8v-1.4
			h-4.8c-2.6,0-4,1.1-4,3.1c0,1.9,1.4,3,3.8,3C1170,745.4,1172.2,743.4,1172.2,740.8z"/>
		<path class="st3" d="M1185.7,721.7v26.6h-4.1v-26.6H1185.7z"/>
		<path class="st3" d="M1201.9,734.7c-0.3-1.6-1.8-2-3.7-2c-2,0-3.4,0.6-3.4,1.9c0,1.2,0.8,1.6,2.4,1.9l3.6,0.6
			c3.4,0.5,5.7,2.3,5.7,5.8c0,3.1-2.7,6-8,6c-5.5,0-8.1-2.4-8.5-6.1h4.1c0.3,1.9,1.9,2.7,4.3,2.7c2.4,0,3.9-0.7,3.9-2.4
			c0-1.4-0.9-2.1-3-2.5l-3.9-0.7c-2.8-0.5-4.8-2-4.8-4.9c0-3.1,2.4-5.7,7.6-5.7c4.5,0,7.2,2.2,7.6,5.5H1201.9z"/>
		<path class="st3" d="M1227.6,739.3h-13.8c0.1,3.8,1.9,5.9,5.2,5.9c2.2,0,3.5-0.9,4.1-2.4h4.2c-0.7,3.5-3.5,5.9-8.3,5.9
			c-5.9,0-9.3-4.1-9.3-9.9s3.5-9.7,9.2-9.7c5.6,0,8.6,3.9,8.7,8.7V739.3z M1214,736.3h9.3c-0.3-2.1-1.7-3.8-4.5-3.8
			C1216,732.5,1214.5,734.1,1214,736.3z"/>
	</g>
</g>
<g>
	<g>
		<path class="st6" d="M279.2,293.9l-16,3.5c-3.3,0.7-6.6-1.3-7.3-4.6l-3.5-16"/>
		<line class="st6" x1="261.8" y1="291.5" x2="353.9" y2="175.3"/>
	</g>
	<rect x="265.8" y="203.2" class="st1" width="88.1" height="26.4"/>
	<g>
		<path class="st6" d="M712.4,276.8l-3.5,16c-0.7,3.3-4,5.3-7.3,4.6l-16-3.5"/>
		<line class="st6" x1="610.9" y1="175.3" x2="702.9" y2="291.5"/>
	</g>
	<g>
		<path class="st3" d="M287.7,210.1v3.5h-4.4v9.1c0,1.6,0.8,2.5,2.9,2.5h1.5v3.6h-1.6c-4.1,0-6.9-1.2-6.9-5.5v-9.6h-3v-3.5h3v-5.4
			h4.1v5.4H287.7z"/>
		<path class="st3" d="M304.2,213.9h-1.7c-3.8,0-5.8,2.2-5.8,6.1v8.7h-4.1v-18.6h4v2.2h0.9c0.8-1,2.3-2.2,5.2-2.2h1.6V213.9z"/>
		<path class="st3" d="M312,210.1v10.8c0,3,1.4,4.6,4.1,4.6c3,0,4.8-2.5,4.8-5.4v-9.9h4.1v18.6h-4v-1.8h-0.9
			c-1.1,1.4-2.9,2.3-5.4,2.3c-4.6,0-7-2.8-7-7.5v-11.6H312z"/>
		<path class="st3" d="M347.5,219.7h-13.8c0.1,3.8,1.9,5.9,5.2,5.9c2.2,0,3.5-0.9,4.1-2.4h4.2c-0.7,3.5-3.5,5.9-8.3,5.9
			c-5.9,0-9.3-4.1-9.3-9.9s3.5-9.7,9.2-9.7c5.6,0,8.6,3.9,8.7,8.7V219.7z M334,216.7h9.3c-0.3-2.1-1.7-3.8-4.5-3.8
			C335.9,212.9,334.5,214.5,334,216.7z"/>
	</g>
	<rect x="606.1" y="203.2" class="st1" width="88.1" height="26.4"/>
	<g>
		<path class="st3" d="M618.9,213.6v15.1h-4.1v-15.1h-3v-3.5h3v-1.7c0-4.4,2.7-6.3,6.9-6.3h2.1v3.5h-2c-2.1,0-2.8,1.4-2.8,2.9v1.5
			h4.9v3.5H618.9z"/>
		<path class="st3" d="M639.4,227h-0.9c-1.1,1.4-2.9,2.2-5.5,2.2c-4.3,0-6.7-2.9-6.7-6.1c0-2.9,2-6.3,7.4-6.3h5.5v-0.5
			c0-2-1.2-3.4-3.9-3.4c-2.4,0-3.6,1-3.7,2.4h-4.1c0.2-3.5,3.3-5.6,7.7-5.6c4.8,0,8,2.1,8,6.7v12.4h-3.8V227z M639.3,221.2v-1.4
			h-4.8c-2.6,0-3.9,1.1-3.9,3.1c0,1.9,1.4,3,3.8,3C637.1,225.8,639.3,223.8,639.3,221.2z"/>
		<path class="st3" d="M652.8,202.1v26.6h-4.1v-26.6H652.8z"/>
		<path class="st3" d="M668.9,215.1c-0.3-1.6-1.8-2-3.7-2c-2,0-3.4,0.6-3.4,1.9c0,1.2,0.8,1.6,2.4,1.9l3.6,0.6
			c3.4,0.5,5.7,2.3,5.7,5.8c0,3.1-2.7,6-8,6c-5.5,0-8.1-2.4-8.5-6.1h4.1c0.3,1.9,1.9,2.7,4.3,2.7c2.4,0,3.9-0.7,3.9-2.4
			c0-1.4-0.9-2.1-3-2.5l-3.9-0.7c-2.8-0.5-4.8-2-4.8-4.9c0-3.1,2.4-5.7,7.6-5.7c4.5,0,7.2,2.2,7.6,5.4H668.9z"/>
		<path class="st3" d="M694.7,219.7h-13.8c0.1,3.8,1.9,5.9,5.2,5.9c2.2,0,3.5-0.9,4.1-2.4h4.2c-0.7,3.5-3.5,5.9-8.3,5.9
			c-5.9,0-9.3-4.1-9.3-9.9s3.5-9.7,9.2-9.7c5.6,0,8.6,3.9,8.7,8.7V219.7z M681.1,216.7h9.3c-0.3-2.1-1.7-3.8-4.5-3.8
			C683.1,212.9,681.6,214.5,681.1,216.7z"/>
	</g>
</g>
<g>
	<g>
		<path class="st6" d="M955.7,536.8l-3.5,16c-0.7,3.3-4,5.3-7.3,4.6l-16-3.5"/>
		<line class="st6" x1="854.1" y1="435.3" x2="946.2" y2="551.5"/>
	</g>
	<rect x="854.1" y="460.2" class="st1" width="88.1" height="26.4"/>
	<g>
		<path class="st6" d="M547.4,551.5l-16,3.5c-3.3,0.7-6.6-1.3-7.3-4.6l-3.5-16"/>
		<line class="st6" x1="530.1" y1="549.1" x2="622.2" y2="432.9"/>
	</g>
	<g>
		<path class="st3" d="M862.1,471.2v15.1H858v-15.1h-3v-3.5h3V466c0-4.4,2.7-6.3,6.9-6.3h2.1v3.5h-2c-2.1,0-2.8,1.4-2.8,2.9v1.5h4.9
			v3.5H862.1z"/>
		<path class="st3" d="M882.6,484.6h-0.9c-1.1,1.4-2.9,2.2-5.5,2.2c-4.3,0-6.7-2.9-6.7-6.1c0-2.9,2-6.3,7.4-6.3h5.5v-0.5
			c0-2-1.2-3.4-3.9-3.4c-2.4,0-3.6,1-3.7,2.4h-4.1c0.2-3.5,3.3-5.6,7.7-5.6c4.8,0,8,2.1,8,6.7v12.4h-3.8V484.6z M882.5,478.8v-1.4
			h-4.8c-2.6,0-4,1.1-4,3.1c0,1.9,1.4,3,3.8,3C880.3,483.4,882.5,481.4,882.5,478.8z"/>
		<path class="st3" d="M896.1,459.7v26.6h-4.1v-26.6H896.1z"/>
		<path class="st3" d="M912.2,472.7c-0.3-1.6-1.8-2-3.7-2c-2,0-3.4,0.6-3.4,1.9c0,1.2,0.8,1.6,2.4,1.9l3.6,0.6
			c3.4,0.5,5.7,2.3,5.7,5.8c0,3.1-2.7,6-8,6c-5.5,0-8.1-2.4-8.5-6.1h4.1c0.3,1.9,1.9,2.7,4.3,2.7c2.4,0,3.9-0.7,3.9-2.4
			c0-1.4-0.9-2.1-3-2.5l-3.9-0.7c-2.8-0.5-4.8-2-4.8-4.9c0-3.1,2.4-5.7,7.6-5.7c4.5,0,7.2,2.2,7.6,5.4H912.2z"/>
		<path class="st3" d="M937.9,477.4h-13.8c0.1,3.8,1.9,5.9,5.2,5.9c2.2,0,3.5-0.9,4.1-2.4h4.2c-0.7,3.5-3.5,5.9-8.3,5.9
			c-5.9,0-9.3-4.1-9.3-9.9s3.5-9.7,9.2-9.7c5.6,0,8.6,3.9,8.7,8.7V477.4z M924.4,474.3h9.3c-0.3-2.1-1.7-3.8-4.5-3.8
			C926.3,470.5,924.9,472.1,924.4,474.3z"/>
	</g>
	<rect x="534.2" y="464.6" class="st1" width="88.1" height="26.4"/>
	<g>
		<path class="st3" d="M556,467.7v3.5h-4.4v9.1c0,1.6,0.8,2.5,2.9,2.5h1.5v3.6h-1.6c-4.1,0-6.9-1.2-6.9-5.5v-9.6h-3v-3.5h3v-5.4h4.1
			v5.4H556z"/>
		<path class="st3" d="M572.5,471.6h-1.7c-3.8,0-5.8,2.2-5.8,6.1v8.7h-4.1v-18.6h4v2.2h0.9c0.8-1,2.3-2.2,5.2-2.2h1.6V471.6z"/>
		<path class="st3" d="M580.2,467.7v10.8c0,3,1.4,4.6,4.1,4.6c3,0,4.8-2.5,4.8-5.4v-9.9h4.1v18.6h-4v-1.8h-0.9
			c-1.1,1.4-2.9,2.3-5.4,2.3c-4.6,0-7-2.8-7-7.5v-11.6H580.2z"/>
		<path class="st3" d="M615.8,477.4H602c0.1,3.8,1.9,5.9,5.2,5.9c2.2,0,3.5-0.9,4.1-2.4h4.2c-0.7,3.5-3.5,5.9-8.3,5.9
			c-5.9,0-9.3-4.1-9.3-9.9s3.5-9.7,9.2-9.7c5.6,0,8.6,3.9,8.7,8.7V477.4z M602.2,474.3h9.3c-0.3-2.1-1.7-3.8-4.5-3.8
			C604.2,470.5,602.7,472.1,602.2,474.3z"/>
	</g>
</g>
</svg>
